<?xml version="1.0" encoding="iso-8859-1"?>
<!-- Uploaded to: SVG Repo, www.svgrepo.com, Generator: SVG Repo Mixer Tools -->
<svg fill="#000000" height="800px" width="800px" version="1.1" id="Capa_1" xmlns="http://www.w3.org/2000/svg" xmlns:xlink="http://www.w3.org/1999/xlink" 
	 viewBox="0 0 57.936 57.936" xml:space="preserve">
<g>
	<path d="M18.795,37.508c-0.482-0.268-1.092-0.093-1.359,0.39l-2.057,3.711c-0.268,0.483-0.093,1.092,0.391,1.359
		c0.153,0.085,0.319,0.125,0.483,0.125c0.352,0,0.693-0.186,0.876-0.515l2.057-3.711C19.454,38.384,19.279,37.775,18.795,37.508z"/>
	<path d="M22.237,45.884c-0.481-0.268-1.092-0.093-1.359,0.39l-2.057,3.71c-0.268,0.483-0.093,1.092,0.391,1.359
		c0.153,0.085,0.319,0.125,0.483,0.125c0.352,0,0.693-0.186,0.876-0.515l2.057-3.71C22.895,46.76,22.72,46.151,22.237,45.884z"/>
	<path d="M26.351,38.462c-0.481-0.268-1.092-0.094-1.359,0.39l-2.057,3.71c-0.268,0.483-0.093,1.092,0.391,1.359
		c0.153,0.085,0.319,0.125,0.483,0.125c0.352,0,0.693-0.186,0.876-0.515l2.057-3.71C27.009,39.339,26.834,38.73,26.351,38.462z"/>
	<path d="M9.88,36.943l-2.057,3.71c-0.268,0.483-0.093,1.092,0.391,1.359c0.153,0.085,0.319,0.125,0.483,0.125
		c0.352,0,0.693-0.186,0.876-0.515l2.057-3.71c0.268-0.483,0.093-1.092-0.391-1.359C10.758,36.286,10.148,36.46,9.88,36.943z"/>
	<path d="M14.547,28.515l-2.057,3.711c-0.268,0.483-0.093,1.092,0.391,1.359c0.153,0.085,0.319,0.125,0.483,0.125
		c0.352,0,0.693-0.186,0.876-0.515l2.057-3.711c0.268-0.483,0.093-1.092-0.391-1.359C15.425,27.857,14.815,28.033,14.547,28.515z"/>
	<path d="M7.125,43.975c-0.481-0.269-1.092-0.094-1.359,0.39l-2.057,3.71c-0.268,0.483-0.093,1.092,0.391,1.359
		c0.153,0.085,0.319,0.125,0.483,0.125c0.352,0,0.693-0.186,0.876-0.515l2.057-3.71C7.784,44.852,7.609,44.243,7.125,43.975z"/>
	<path d="M14.681,44.929c-0.482-0.268-1.091-0.093-1.359,0.39l-2.057,3.711c-0.268,0.483-0.093,1.092,0.391,1.359
		c0.153,0.085,0.319,0.125,0.483,0.125c0.352,0,0.693-0.186,0.876-0.515l2.057-3.711C15.339,45.805,15.164,45.197,14.681,44.929z"/>
	<path d="M10.568,52.351c-0.481-0.268-1.092-0.093-1.359,0.39l-2.057,3.711c-0.268,0.483-0.093,1.092,0.391,1.359
		c0.153,0.085,0.319,0.125,0.483,0.125c0.352,0,0.693-0.186,0.876-0.515l2.057-3.711C11.226,53.227,11.051,52.618,10.568,52.351z"/>
	<path d="M33.907,39.417c-0.482-0.269-1.091-0.093-1.359,0.39l-2.057,3.711c-0.268,0.483-0.093,1.092,0.391,1.359
		c0.153,0.085,0.319,0.125,0.483,0.125c0.352,0,0.693-0.186,0.876-0.515l2.057-3.711C34.565,40.292,34.39,39.684,33.907,39.417z"/>
	<path d="M5.055,33.125c-0.481-0.269-1.092-0.093-1.359,0.39l-2.057,3.711c-0.268,0.483-0.093,1.092,0.391,1.359
		c0.153,0.085,0.319,0.125,0.483,0.125c0.352,0,0.693-0.186,0.876-0.515l2.057-3.711C5.713,34.001,5.539,33.393,5.055,33.125z"/>
	<path d="M7.422,26c0.553,0,1-0.448,1-1c0-3.86,3.141-7,7-7h22c4.963,0,9-4.038,9-9s-4.037-9-9-9c-0.553,0-1,0.448-1,1s0.447,1,1,1
		c3.859,0,7,3.14,7,7s-3.141,7-7,7h-22c-4.963,0-9,4.038-9,9C6.422,25.552,6.87,26,7.422,26z"/>
	<path d="M44.422,28h-20c-0.553,0-1,0.448-1,1s0.447,1,1,1h20c3.859,0,7,3.14,7,7s-3.141,7-7,7c-0.553,0-1,0.448-1,1s0.447,1,1,1
		c4.963,0,9-4.038,9-9S49.385,28,44.422,28z"/>
	<path d="M33.422,10c0.553,0,1-0.448,1-1c0-1.654,1.346-3,3-3s3,1.346,3,3s-1.346,3-3,3c-0.553,0-1,0.448-1,1s0.447,1,1,1
		c2.757,0,5-2.243,5-5s-2.243-5-5-5s-5,2.243-5,5C32.422,9.552,32.87,10,33.422,10z"/>
	<path d="M49.422,37c0-2.757-2.243-5-5-5c-0.553,0-1,0.448-1,1s0.447,1,1,1c1.654,0,3,1.346,3,3s-1.346,3-3,3s-3-1.346-3-3
		c0-0.552-0.447-1-1-1s-1,0.448-1,1c0,2.757,2.243,5,5,5S49.422,39.757,49.422,37z"/>
	<path d="M38.422,32h-6c-0.553,0-1,0.448-1,1s0.447,1,1,1h6c0.553,0,1-0.448,1-1S38.975,32,38.422,32z"/>
	<path d="M27.422,14h6c0.553,0,1-0.448,1-1s-0.447-1-1-1h-6c-0.553,0-1,0.448-1,1S26.87,14,27.422,14z"/>
	<path d="M15.422,20c-0.553,0-1,0.448-1,1s0.447,1,1,1h31c0.553,0,1-0.448,1-1s-0.447-1-1-1H15.422z"/>
	<path d="M55.422,24h-36c-0.553,0-1,0.448-1,1s0.447,1,1,1h36c0.553,0,1-0.448,1-1S55.975,24,55.422,24z"/>
</g>
</svg>